<svg id="Layer_1" data-name="Layer 1" xmlns="http://www.w3.org/2000/svg" viewBox="0 0 24 24.01"><defs><style>.cls-1{fill:none;stroke:#000;stroke-linecap:round;stroke-linejoin:round;stroke-width:1.8px;}</style></defs><path d="M9.6,17.72A2.82,2.82,0,0,1,7.77,17a3.07,3.07,0,0,1-1-1.76L5.07,6.43s0-.06,0-.08L4.19,1.83H.91A.91.91,0,0,1,.91,0h4a.9.9,0,0,1,.89.74L6.7,5.3H23.09a.9.9,0,0,1,.7.33,1,1,0,0,1,.2.75l-1.62,8.89a3.07,3.07,0,0,1-1,1.77,2.75,2.75,0,0,1-1.91.68H9.6ZM7.05,7.12l1.48,7.81a1.25,1.25,0,0,0,.41.71,1.13,1.13,0,0,0,.7.26h9.82a1,1,0,0,0,.72-.26,1.25,1.25,0,0,0,.41-.71L22,7.12Z" transform="translate(0 -0.01)"/><path class="cls-1" d="M9.06,23.12a1,1,0,0,0,.58-.18,1.06,1.06,0,0,0,.39-.47,1,1,0,0,0,.05-.6,1,1,0,0,0-.28-.54A1,1,0,0,0,9.27,21a1.06,1.06,0,0,0-.61.06,1,1,0,0,0-.46.39,1,1,0,0,0-.18.58,1,1,0,0,0,.31.74A1,1,0,0,0,9.06,23.12Z" transform="translate(0 -0.01)"/><path class="cls-1" d="M20.52,23.12a1,1,0,0,0,.58-.18,1.06,1.06,0,0,0,.44-1.07,1.08,1.08,0,0,0-.28-.54,1,1,0,0,0-1.14-.23,1.11,1.11,0,0,0-.47.39,1.07,1.07,0,0,0,.13,1.32A1,1,0,0,0,20.52,23.12Z" transform="translate(0 -0.01)"/></svg>