<?xml version="1.0" encoding="utf-8"?>
<!-- Generator: Adobe Illustrator 26.5.0, SVG Export Plug-In . SVG Version: 6.00 Build 0)  -->
<svg version="1.1" id="Layer_1" xmlns="http://www.w3.org/2000/svg" xmlns:xlink="http://www.w3.org/1999/xlink" x="0px" y="0px"
	 viewBox="0 0 24 24" style="enable-background:new 0 0 24 24;" xml:space="preserve">
<style type="text/css">
	.st0{fill:#010101;}
</style>
<g>
	<path class="st0" d="M23.7,22.5L23.7,22.5L23.7,22.5l-4.8-4.8c3.6-4.2,3.4-10.5-0.6-14.5c-2.1-2.1-4.8-3.1-7.5-3.1
		c-2.7,0-5.5,1-7.6,3.1c-4.2,4.2-4.2,10.9,0,15.1c2.1,2.1,4.8,3.1,7.6,3.1c2.5,0,4.9-0.9,6.9-2.6l4.8,4.8c0.1,0.1,0.4,0.2,0.6,0.2
		c0.2,0,0.4-0.1,0.6-0.3C24,23.4,24,22.8,23.7,22.5z M4.5,17.1L4.5,17.1c-1.7-1.7-2.6-3.9-2.6-6.3c0-2.4,0.9-4.6,2.6-6.4
		c1.7-1.7,3.9-2.6,6.3-2.6c2.4,0,4.6,0.9,6.3,2.6c1.7,1.7,2.6,4,2.6,6.4c0,2.4-0.9,4.6-2.6,6.4c-1.7,1.7-4,2.6-6.3,2.6
		C8.4,19.8,6.2,18.8,4.5,17.1z"/>
	<path class="st0" d="M23.1,24c-0.2,0-0.5-0.1-0.6-0.2L17.7,19c-1.9,1.6-4.4,2.5-6.9,2.5c-2.8,0-5.6-1.1-7.6-3.1
		c-2-2-3.2-4.7-3.2-7.6c0-2.9,1.1-5.6,3.2-7.6c2-2,4.7-3.1,7.6-3.1c2.8,0,5.6,1.1,7.6,3.1c1.9,1.9,3,4.5,3.2,7.2
		c0.1,2.7-0.8,5.3-2.5,7.3l4.8,4.8l0,0c0.3,0.4,0.3,0.9-0.1,1.2C23.5,23.9,23.3,24,23.1,24z M17.7,18.9l4.8,4.8
		c0.1,0.1,0.3,0.2,0.5,0.2c0.2,0,0.4-0.1,0.6-0.2c0.3-0.3,0.3-0.8,0-1.1l0,0l-4.8-4.8l0,0c1.7-2,2.6-4.6,2.5-7.3
		c-0.1-2.7-1.2-5.2-3.1-7.1c-1.9-2-4.7-3.1-7.5-3.1C8,0.1,5.3,1.3,3.3,3.3c-2,2-3.1,4.7-3.1,7.5c0,2.8,1.1,5.5,3.1,7.5
		c2,2,4.7,3.1,7.5,3.1C13.3,21.4,15.8,20.5,17.7,18.9L17.7,18.9z M10.8,19.8c-2.4,0-4.7-0.9-6.4-2.7l0,0c-1.7-1.6-2.6-3.9-2.6-6.3
		c0-2.4,0.9-4.7,2.6-6.4c1.7-1.7,4-2.6,6.4-2.6c2.4,0,4.7,0.9,6.4,2.6c1.7,1.7,2.6,4,2.6,6.4c0,2.4-0.9,4.7-2.6,6.4
		C15.5,18.9,13.2,19.8,10.8,19.8z M4.5,17.1c1.7,1.7,3.9,2.6,6.3,2.6c2.4,0,4.6-0.9,6.3-2.6c1.7-1.7,2.6-4,2.6-6.3s-0.9-4.6-2.6-6.3
		c-1.7-1.7-3.9-2.6-6.3-2.6c-2.4,0-4.6,0.9-6.3,2.6c-1.7,1.7-2.6,4-2.6,6.3C1.9,13.2,2.8,15.4,4.5,17.1L4.5,17.1z"/>
</g>
</svg>
