<?xml version="1.0" encoding="utf-8"?>
<!-- Generator: Adobe Illustrator 26.5.0, SVG Export Plug-In . SVG Version: 6.00 Build 0)  -->
<svg version="1.1" id="Layer_1" xmlns="http://www.w3.org/2000/svg" xmlns:xlink="http://www.w3.org/1999/xlink" x="0px" y="0px"
	 viewBox="0 0 24 24" style="enable-background:new 0 0 24 24;" xml:space="preserve">
<style type="text/css">
	.st0{fill:#010101;}
</style>
<g>
	<path class="st0" d="M0.9,24C0.4,24,0,23.6,0,23.1v-3.6c0-0.8,0.2-1.6,0.5-2.4c0.3-0.8,0.8-1.4,1.4-2c1.2-1.2,2.8-1.8,4.5-1.8
		c0,0,0,0,0,0h11.1c0,0,0,0,0,0c1.7,0,3.3,0.6,4.5,1.8c0.6,0.6,1.1,1.2,1.4,2c0.3,0.8,0.5,1.6,0.5,2.4v3.6c0,0.5-0.4,0.9-0.9,0.9
		s-0.9-0.4-0.9-0.9v-3.6c0-0.6-0.1-1.1-0.3-1.7c-0.2-0.5-0.6-1-1-1.4c-0.9-0.8-2.1-1.3-3.3-1.3c0,0,0,0,0,0H6.5c0,0,0,0,0,0
		c-1.2,0-2.4,0.5-3.3,1.3c-0.4,0.4-0.8,0.9-1,1.4c-0.2,0.5-0.3,1.1-0.3,1.7v3.6C1.8,23.6,1.4,24,0.9,24z"/>
</g>
<g>
	<g>
		<path class="st0" d="M11.9,12.1c-0.8,0-1.6-0.2-2.3-0.5c-0.7-0.3-1.4-0.7-2-1.3c-0.6-0.6-1-1.2-1.3-2C5.9,7.6,5.7,6.8,5.7,6
			c0-1.2,0.4-2.4,1-3.4c0.7-1,1.6-1.8,2.8-2.2c1.1-0.5,2.3-0.6,3.5-0.3c1.2,0.2,2.3,0.8,3.1,1.6c0.9,0.8,1.5,1.9,1.7,3.1
			C18.1,6,18,7.2,17.6,8.3c-0.5,1.1-1.3,2-2.3,2.7C14.3,11.7,13.1,12.1,11.9,12.1z M11.9,1.8c-0.6,0-1.1,0.1-1.7,0.3
			C9.4,2.4,8.7,3,8.3,3.7C7.8,4.4,7.5,5.2,7.5,6c0,0.6,0.1,1.1,0.3,1.6c0.2,0.5,0.5,1,0.9,1.4c0.4,0.4,0.9,0.7,1.4,0.9
			c1.3,0.5,2.9,0.4,4.1-0.4c0.7-0.5,1.3-1.1,1.6-1.9c0.3-0.8,0.4-1.6,0.2-2.4C16,4.4,15.6,3.6,15,3c-0.6-0.6-1.4-1-2.2-1.2
			C12.4,1.8,12.2,1.8,11.9,1.8z"/>
	</g>
</g>
</svg>
